HIERARCHY
ROOT ui
{
	 OFFSET 0 0 0
	 CHANNELS 3 XPosition YPosition Z Position
	 EndSite
	 {
	 OFFSET 0 -1 0
	 }
}
ROOT li
{
	 OFFSET 0 0 0
	 CHANNELS 3 XPosition YPosition Z Position
	 EndSite
	 {
	 OFFSET 0 -1 0
	 }
}
ROOT ul
{
	 OFFSET 0 0 0
	 CHANNELS 3 XPosition YPosition Z Position
	 EndSite
	 {
	 OFFSET 0 -1 0
	 }
}
ROOT ll
{
	 OFFSET 0 0 0
	 CHANNELS 3 XPosition YPosition Z Position
	 EndSite
	 {
	 OFFSET 0 -1 0
	 }
}
ROOT tt
{
	 OFFSET 0 0 0
	 CHANNELS 3 XPosition YPosition Z Position
	 EndSite
	 {
	 OFFSET 0 -1 0
	 }
}
ROOT tb
{
	 OFFSET 0 0 0
	 CHANNELS 3 XPosition YPosition Z Position
	 EndSite
	 {
	 OFFSET 0 -1 0
	 }
}
ROOT td
{
	 OFFSET 0 0 0
	 CHANNELS 3 XPosition YPosition Z Position
	 EndSite
	 {
	 OFFSET 0 -1 0
	 }
}
ROOT v
{
	 OFFSET 0 0 0
	 CHANNELS 3 XPosition YPosition Z Position
	 EndSite
	 {
	 OFFSET 0 -1 0
	 }
}
ROOT bn
{
	 OFFSET 0 0 0
	 CHANNELS 3 XPosition YPosition Z Position
	 EndSite
	 {
	 OFFSET 0 -1 0
	 }
}
MOTION
Frames: 16
Frame Time: 0.002
-0.009802297592163086	0.0015374950170516967	0		0.4340179443359375	-2.317356201171875	0		-1.0745628662109374	-0.028144874572753907	0		-0.7982039184570312	-2.2648271484375	0		1.59222412109375	-0.37910964965820315	0		3.165246337890625	0.1309590606689453	0		4.4930927734375	0.1626202850341797	0		5.62512255859375	0.10100204467773438	0		-0.047589134216308594	5.93333935546875	0		
0.06478643035888672	-9.478319883346558E-4	0		0.46673394775390625	-2.3309775390625	0		-1.0399434814453126	-0.029032220840454103	0		-0.8371798706054687	-2.261272216796875	0		1.58501708984375	-0.37280364990234377	0		3.15173681640625	0.1256162338256836	0		4.49068994140625	0.1632667694091797	0		5.62272900390625	0.10181793975830078	0		-0.05085531997680664	5.93330615234375	0		
-0.009667577743530274	-0.002590059041976929	0		0.4646844482421875	-2.330910400390625	0		-1.079343017578125	-0.028503456115722657	0		-0.8023030395507813	-2.2651015625	0		1.5795897216796875	-0.3765062255859375	0		3.1403271484375	0.12726808166503906	0		4.48825390625	0.16395712280273436	0		5.620302734375	0.10268360900878906	0		-0.18757447814941405	5.91379541015625	0		
0.06305298233032226	0.0030264439582824705	0		0.47557711791992185	-2.3350625	0		-1.077661865234375	-0.024732297897338867	0		-0.8273585815429687	-2.265782958984375	0		1.571122314453125	-0.383128662109375	0		3.1576083984375	0.111408447265625	0		4.4738330078125	0.16490274047851564	0		5.6178896484375	0.10358380126953125	0		-0.17475569152832032	5.921482421875	0		
-0.004226315021514893	0.007274182796478271	0		0.448696533203125	-2.32948876953125	0		-1.0759486083984375	-0.021938661575317382	0		-0.7883167114257813	-2.264633056640625	0		1.5931473388671875	-0.3662891845703125	0		3.159743408203125	0.13886570739746093	0		4.48758837890625	0.17234930419921876	0		5.6303037109375	0.09223242950439453	0		-0.1770531768798828	5.92047412109375	0		
0.06335246658325196	-0.001947180986404419	0		0.46966802978515626	-2.336778564453125	0		-1.0452857666015625	-0.02665129852294922	0		-0.8411049194335938	-2.25776416015625	0		1.5758355712890626	-0.37170391845703127	0		3.13813330078125	0.12177194213867187	0		4.4763193359375	0.17427752685546874	0		5.6180654296875	0.09535803985595703	0		-0.06400676727294922	5.9323798828125	0		
-0.020678688049316406	0.005631149768829346	0		0.4580243225097656	-2.328444580078125	0		-1.0514892578125	-0.029659976959228517	0		-0.7720465698242187	-2.26610205078125	0		1.6106424560546875	-0.377049072265625	0		3.13108837890625	0.12943023681640625	0		4.490990234375	0.1667469482421875	0		5.6110791015625	0.10640143585205078	0		-0.06708307647705078	5.93245068359375	0		
0.05119081115722656	-6.030169725418091E-4	0		0.46415509033203123	-2.339416015625	0		-1.09050634765625	-0.02905511474609375	0		-0.848659912109375	-2.2617705078125	0		1.571768798828125	-0.37103607177734377	0		3.1339140625	0.12292268371582031	0		4.4769384765625	0.16775318908691406	0		5.61385400390625	0.09727534484863282	0		-0.07002204895019531	5.93254052734375	0		
-0.01968601417541504	7.544180154800415E-4	0		0.4377137145996094	-2.333782470703125	0		-1.088319091796875	-0.02517385482788086	0		-0.8362798461914063	-2.266030029296875	0		1.5699368896484376	-0.3706806640625	0		3.133150146484375	0.13149488830566405	0		4.475025390625	0.16854736328125	0		5.61195166015625	0.09824123382568359	0		-0.19001939392089845	5.92173828125	0		
0.05063460540771485	0.0036096620559692384	0		0.4315504150390625	-2.320498046875	0		-1.09005419921875	-0.025201129913330077	0		-0.8475408935546875	-2.25784423828125	0		1.5790386962890626	-0.3825083312988281	0		3.13025048828125	0.12410981750488281	0		4.477384765625	0.17626953125	0		5.6053759765625	0.10929010772705078	0		-0.075420654296875	5.9327705078125	0		
-0.023009193420410155	0.0010279929637908936	0		0.4620308227539062	-2.335849365234375	0		-1.095704345703125	-0.029140497207641603	0		-0.813894287109375	-2.26343359375	0		1.5667218017578124	-0.3699443359375	0		3.139769775390625	0.1315107879638672	0		4.4836513671875	0.16991860961914063	0		5.60377587890625	0.11024040222167969	0		-0.07785590362548828	5.93290576171875	0		
0.04948215103149414	-0.004107871055603027	0		0.4500325317382812	-2.32943896484375	0		-1.0971279296875	-0.029136175155639647	0		-0.8539854736328125	-2.2617109375	0		1.562276123046875	-0.37351882934570313	0		3.12720361328125	0.12529370880126953	0		4.46534228515625	0.17898968505859375	0		5.6023330078125	0.11117147064208985	0		-0.08010420989990234	5.93305078125	0		
-0.028761032104492188	-0.0016076469421386719	0		0.44906723022460937	-2.329217041015625	0		-1.0983966064453126	-0.029118318557739258	0		-0.81801708984375	-2.26530029296875	0		1.5610528564453126	-0.3731502380371094	0		3.11693310546875	0.127024169921875	0		4.46890673828125	0.17165591430664062	0		5.6010458984375	0.11207292175292968	0		-0.2003490753173828	5.92324462890625	0		
-0.029881479263305664	-0.0014446749687194824	0		0.40725857543945315	-2.327291015625	0		-1.0895322265625	-0.03025946807861328	0		-0.830992431640625	-2.27302783203125	0		1.5738389892578124	-0.381029296875	0		3.1296572265625	0.11933800506591796	0		4.46776513671875	0.1723765106201172	0		5.61056640625	0.09274799346923829	0		-0.20023870849609374	5.92135205078125	0		
-0.027800289154052735	0.0016685889959335326	0		0.46249697875976564	-2.331030517578125	0		-1.0795341796875	-0.032403629302978514	0		-0.8374954833984375	-2.2608544921875	0		1.5560008544921875	-0.37539105224609376	0		3.129031982421875	0.14086282348632811	0		4.47089404296875	0.1799888916015625	0		5.6137216796875	0.10149154663085938	0		-0.2009059295654297	5.92048046875	0		
0.048356693267822264	-4.70988005399704E-4	0		0.45003082275390627	-2.324611328125	0		-1.0602467041015624	-0.02668899917602539	0		-0.818109130859375	-2.26311328125	0		1.601320556640625	-0.3698396606445313	0		3.10889990234375	0.12368463897705079	0		4.47307666015625	0.18157640075683593	0		5.59810205078125	0.11450274658203125	0		-0.21947691345214843	5.91291650390625	0		
